<svg xmlns="http://www.w3.org/2000/svg" version="1.1" xmlns:xlink="http://www.w3.org/1999/xlink" width="128" height="128" x="0" y="0" viewBox="0 0 512 512" style="enable-background:new 0 0 512 512" xml:space="preserve" class=""><defs><linearGradient id="a" x1="74.98" x2="437.02" y1="74.98" y2="437.02" gradientUnits="userSpaceOnUse"><stop offset="0" stop-color="#f77669"></stop><stop offset="1" stop-color="#e55a5a"></stop></linearGradient><linearGradient id="b" x1="140.49" x2="446.64" y1="121.23" y2="427.39" gradientUnits="userSpaceOnUse"><stop offset="0" stop-color="#ba3535"></stop><stop offset="1" stop-color="#ba3535" stop-opacity="0"></stop></linearGradient></defs><g><linearGradient id="a" x1="74.98" x2="437.02" y1="74.98" y2="437.02" gradientUnits="userSpaceOnUse"><stop offset="0" stop-color="#f77669"></stop><stop offset="1" stop-color="#e55a5a"></stop></linearGradient><linearGradient id="b" x1="140.49" x2="446.64" y1="121.23" y2="427.39" gradientUnits="userSpaceOnUse"><stop offset="0" stop-color="#ba3535"></stop><stop offset="1" stop-color="#ba3535" stop-opacity="0"></stop></linearGradient><g data-name="Layer 2"><g data-name="Layer 1 copy 7"><g data-name="110"><circle cx="256" cy="256" r="256" fill="url(&quot;#a&quot;)" opacity="1" data-original="url(#a)" class=""></circle><path fill="url(&quot;#b&quot;)" d="M512 259.77c-1.85 126.32-95.18 230.5-216.69 249.23L180.47 394.16l-3.05-7.61-12.8-11.65 3-13.49 7.2-22.27 6.5-12 5.75-6 25-23.24 26.52-11.58L223 270.63l-6.71-8.58L119 164.8l1.87-7.41 13.92-10.89-1.07-17.64 4-4.82 5.72-.72 14.66 9.88 16.44-6.48 8.1 3.54L243.3 191l22.45-1-32-32-2.4-4.7 3-17.42-12.66-12.34-.22-5.88 3.67-4.74 17.5-2.54 7.82-15.85 5.54-2.3 5.58 2.24L279.1 112l7.8.87 43.55 43.55 3.65-5.19-4.87-17 2.75-7.74 5.52.24 16.44 6.48 14.66-9.88 6.86-.06z" opacity="1" data-original="url(#b)" class=""></path><g fill="#FFFFFF"><path d="M281 282.41a53.54 53.54 0 1 0-50 0c-34.66 10.43-63.07 42-73 83.87a15.12 15.12 0 0 0 2.74 12.72 120.1 120.1 0 0 0 190.52 0 15.12 15.12 0 0 0 2.74-12.72c-9.92-41.84-38.32-73.44-73-83.87zm-68.54-47.31A43.54 43.54 0 1 1 256 278.63a43.59 43.59 0 0 1-43.54-43.53zm130.88 137.84a110.11 110.11 0 0 1-174.68 0 5.19 5.19 0 0 1-.93-4.36c11.14-47 47.44-79.88 88.27-79.88s77.13 32.85 88.27 79.88a5.19 5.19 0 0 1-.93 4.36zM161.61 193.26l8.09-12.69 15-.54a11.21 11.21 0 0 0 8.3-18.35l-9.57-11.61 4.14-14.47a11.22 11.22 0 0 0-14.9-13.53l-14 5.51-12.48-8.41a11.22 11.22 0 0 0-17.47 10l.91 15-11.85 9.27a11.22 11.22 0 0 0 4.1 19.71l14.57 3.77 5.15 14.14a11.17 11.17 0 0 0 9.33 7.31 10.43 10.43 0 0 0 1.24.07 11.15 11.15 0 0 0 9.44-5.18zm-9.6-4.82a1.16 1.16 0 0 1-1-.8L144.94 171a5 5 0 0 0-3.44-3.13l-17.12-4.43a1.18 1.18 0 0 1-.89-.94 1.15 1.15 0 0 1 .45-1.21l13.92-10.89a5 5 0 0 0 1.91-4.24l-1.07-17.65a1.15 1.15 0 0 1 .61-1.13 1.16 1.16 0 0 1 .62-.18 1.2 1.2 0 0 1 .67.22l14.66 9.88a5 5 0 0 0 4.63.51l16.45-6.48a1.17 1.17 0 0 1 1.27.23 1.19 1.19 0 0 1 .35 1.25l-4.86 17a5 5 0 0 0 .94 4.56L185.29 168a1.22 1.22 0 0 1-.9 2l-17.67.63a5 5 0 0 0-4 2.31l-9.5 14.9a1.16 1.16 0 0 1-1.22.6zM228.94 137.56l-2.54 14.84a11.22 11.22 0 0 0 16.28 11.83l13.32-7 13.32 7a11.22 11.22 0 0 0 16.28-11.83l-2.54-14.84 10.78-10.5a11.22 11.22 0 0 0-6.22-19.14l-14.9-2.17-6.66-13.49A11.15 11.15 0 0 0 256 86a11.15 11.15 0 0 0-10.06 6.26l-6.66 13.49-14.9 2.17a11.22 11.22 0 0 0-6.22 19.14zm-4.11-18.92a1.17 1.17 0 0 1 1-.83l17.49-2.54a5 5 0 0 0 3.77-2.74l7.82-15.85a1.23 1.23 0 0 1 2.2 0l7.82 15.85a5 5 0 0 0 3.77 2.74l17.49 2.54a1.17 1.17 0 0 1 1 .83 1.18 1.18 0 0 1-.31 1.26l-12.68 12.34a5 5 0 0 0-1.44 4.42l3 17.43a1.23 1.23 0 0 1-1.78 1.29l-15.64-8.23a5 5 0 0 0-4.66 0L238 155.38a1.23 1.23 0 0 1-1.78-1.29l3-17.43a5 5 0 0 0-1.44-4.42l-12.64-12.34a1.18 1.18 0 0 1-.31-1.26zM394.22 153.45l-11.85-9.27.91-15a11.22 11.22 0 0 0-17.47-10l-12.48 8.41-14-5.51a11.22 11.22 0 0 0-14.9 13.53l4.14 14.47-9.57 11.6a11.21 11.21 0 0 0 8.26 18.32l15 .54 8.09 12.69a11.15 11.15 0 0 0 9.44 5.19 10.31 10.31 0 0 0 1.24-.07 11.17 11.17 0 0 0 9.33-7.31l5.15-14.14 14.57-3.77a11.22 11.22 0 0 0 4.1-19.71zm-5.71 9.09a1.18 1.18 0 0 1-.9.94l-17.11 4.43a5 5 0 0 0-3.44 3.13L361 187.65a1.22 1.22 0 0 1-2.18.23l-9.5-14.9a5 5 0 0 0-4-2.31l-17.71-.67a1.22 1.22 0 0 1-.9-2L338 154.4a5 5 0 0 0 .94-4.56l-4.86-17a1.19 1.19 0 0 1 .35-1.25 1.2 1.2 0 0 1 1.27-.23l16.45 6.48a5 5 0 0 0 4.63-.51l14.66-9.88a1.22 1.22 0 0 1 1.9 1.09l-1.07 17.65a5 5 0 0 0 1.91 4.24l13.92 10.89a1.15 1.15 0 0 1 .41 1.22z" fill="#FFFFFF" opacity="1" data-original="#ffffff" class=""></path></g></g></g></g></g></svg>