<svg xmlns="http://www.w3.org/2000/svg" version="1.1" xmlns:xlink="http://www.w3.org/1999/xlink" width="128" height="128" x="0" y="0" viewBox="0 0 512.757 512.757" style="enable-background:new 0 0 512 512" xml:space="preserve" class=""><g><path d="M511.493 439.295c-2.133 3.2-5.333 10.667-9.6 10.667H11.226c-3.2 0-7.467-7.467-9.6-10.667 0 0-7.467 23.467 9.6 23.467h490.667c16 1.066 9.6-23.467 9.6-23.467z" style="" fill="#CDD6E0" data-original="#cdd6e0" class=""></path><path d="M460.293 346.495H52.826c-6.4 0-12.8 5.333-16 11.733l-34.133 76.8c-2.133 8.533 1.067 16 8.533 16h490.667c7.467 0 11.733-7.467 8.533-16l-34.133-76.8c-2.134-6.4-9.6-11.733-16-11.733z" style="" fill="#ACB3BA" data-original="#acb3ba" class=""></path><path d="M310.959 433.962h-118.4l12.8-39.467h93.867z" style="" fill="#CDD6E0" data-original="#cdd6e0" class=""></path><path d="M448.559 346.495h-384c-11.733 0-21.333-9.6-21.333-21.333V71.295c0-11.733 9.6-21.333 21.333-21.333h384c11.733 0 21.333 9.6 21.333 21.333v253.867c.001 11.733-9.599 21.333-21.333 21.333z" style="" fill="#334A5E" data-original="#334a5e" class=""></path><path d="M65.63 73.43h380.8V324.1H65.63z" style="" fill="#40596B" data-original="#40596b" class=""></path><path d="M83.76 186.5h60.8v22.4h-60.8z" style="" fill="#FFD15C" data-original="#ffd15c"></path><path d="M168.03 186.5h149.33v22.4H168.03zM339.76 186.5h90.67v22.4h-90.67z" style="" fill="#4CDBC4" data-original="#4cdbc4"></path><path d="M83.76 254.76h125.87v22.4H83.76z" style="" fill="#FF7058" data-original="#ff7058"></path><path d="M233.09 254.76h115.2v22.4h-115.2z" style="" fill="#CDD6E0" data-original="#cdd6e0" class=""></path><path d="M369.63 254.76h60.8v22.4h-60.8zM81.63 118.23h81.07v22.4H81.63z" style="" fill="#FF7058" data-original="#ff7058"></path><path d="M367.49 118.23h64v22.4h-64z" style="" fill="#FFD15C" data-original="#ffd15c"></path><path d="M185.09 118.23h158.93v22.4H185.09z" style="" fill="#CDD6E0" data-original="#cdd6e0" class=""></path></g></svg>